<?xml version="1.0" encoding="utf-8" standalone="no"?>
<!DOCTYPE svg PUBLIC "-//W3C//DTD SVG 1.1//EN"
  "http://www.w3.org/Graphics/SVG/1.1/DTD/svg11.dtd">
<!-- Created with matplotlib (https://matplotlib.org/) -->
<svg height="266.374219pt" version="1.1" viewBox="0 0 388.964375 266.374219" width="388.964375pt" xmlns="http://www.w3.org/2000/svg" xmlns:xlink="http://www.w3.org/1999/xlink">
 <metadata>
  <rdf:RDF xmlns:cc="http://creativecommons.org/ns#" xmlns:dc="http://purl.org/dc/elements/1.1/" xmlns:rdf="http://www.w3.org/1999/02/22-rdf-syntax-ns#">
   <cc:Work>
    <dc:type rdf:resource="http://purl.org/dc/dcmitype/StillImage"/>
    <dc:date>2020-09-06T16:09:58.560544</dc:date>
    <dc:format>image/svg+xml</dc:format>
    <dc:creator>
     <cc:Agent>
      <dc:title>Matplotlib v3.3.1, https://matplotlib.org/</dc:title>
     </cc:Agent>
    </dc:creator>
   </cc:Work>
  </rdf:RDF>
 </metadata>
 <defs>
  <style type="text/css">*{stroke-linecap:butt;stroke-linejoin:round;}</style>
 </defs>
 <g id="figure_1">
  <g id="patch_1">
   <path d="M 0 266.374219 
L 388.964375 266.374219 
L 388.964375 0 
L 0 0 
z
" style="fill:#ffffff;"/>
  </g>
  <g id="axes_1">
   <g id="patch_2">
    <path d="M 46.964375 224.64 
L 381.764375 224.64 
L 381.764375 7.2 
L 46.964375 7.2 
z
" style="fill:#eaeaf2;"/>
   </g>
   <g id="matplotlib.axis_1">
    <g id="xtick_1">
     <g id="line2d_1">
      <path clip-path="url(#p1c63c9199b)" d="M 74.605562 224.64 
L 74.605562 7.2 
" style="fill:none;stroke:#ffffff;stroke-linecap:round;"/>
     </g>
     <g id="text_1">
      <!-- 3.5 -->
      <g style="fill:#262626;" transform="translate(66.960562 242.013594)scale(0.11 -0.11)">
       <defs>
        <path d="M 4.203125 18.890625 
L 12.984375 20.0625 
Q 14.5 12.59375 18.140625 9.296875 
Q 21.78125 6 27 6 
Q 33.203125 6 37.46875 10.296875 
Q 41.75 14.59375 41.75 20.953125 
Q 41.75 27 37.796875 30.921875 
Q 33.84375 34.859375 27.734375 34.859375 
Q 25.25 34.859375 21.53125 33.890625 
L 22.515625 41.609375 
Q 23.390625 41.5 23.921875 41.5 
Q 29.546875 41.5 34.03125 44.421875 
Q 38.53125 47.359375 38.53125 53.46875 
Q 38.53125 58.296875 35.25 61.46875 
Q 31.984375 64.65625 26.8125 64.65625 
Q 21.6875 64.65625 18.265625 61.421875 
Q 14.84375 58.203125 13.875 51.765625 
L 5.078125 53.328125 
Q 6.6875 62.15625 12.390625 67.015625 
Q 18.109375 71.875 26.609375 71.875 
Q 32.46875 71.875 37.390625 69.359375 
Q 42.328125 66.84375 44.9375 62.5 
Q 47.5625 58.15625 47.5625 53.265625 
Q 47.5625 48.640625 45.0625 44.828125 
Q 42.578125 41.015625 37.703125 38.765625 
Q 44.046875 37.3125 47.5625 32.6875 
Q 51.078125 28.078125 51.078125 21.140625 
Q 51.078125 11.765625 44.234375 5.25 
Q 37.40625 -1.265625 26.953125 -1.265625 
Q 17.53125 -1.265625 11.296875 4.34375 
Q 5.078125 9.96875 4.203125 18.890625 
z
" id="ArialMT-51"/>
        <path d="M 9.078125 0 
L 9.078125 10.015625 
L 19.09375 10.015625 
L 19.09375 0 
z
" id="ArialMT-46"/>
        <path d="M 4.15625 18.75 
L 13.375 19.53125 
Q 14.40625 12.796875 18.140625 9.390625 
Q 21.875 6 27.15625 6 
Q 33.5 6 37.890625 10.78125 
Q 42.28125 15.578125 42.28125 23.484375 
Q 42.28125 31 38.0625 35.34375 
Q 33.84375 39.703125 27 39.703125 
Q 22.75 39.703125 19.328125 37.765625 
Q 15.921875 35.84375 13.96875 32.765625 
L 5.71875 33.84375 
L 12.640625 70.609375 
L 48.25 70.609375 
L 48.25 62.203125 
L 19.671875 62.203125 
L 15.828125 42.96875 
Q 22.265625 47.46875 29.34375 47.46875 
Q 38.71875 47.46875 45.15625 40.96875 
Q 51.609375 34.46875 51.609375 24.265625 
Q 51.609375 14.546875 45.953125 7.46875 
Q 39.0625 -1.21875 27.15625 -1.21875 
Q 17.390625 -1.21875 11.203125 4.25 
Q 5.03125 9.71875 4.15625 18.75 
z
" id="ArialMT-53"/>
       </defs>
       <use xlink:href="#ArialMT-51"/>
       <use x="55.615234" xlink:href="#ArialMT-46"/>
       <use x="83.398438" xlink:href="#ArialMT-53"/>
      </g>
     </g>
    </g>
    <g id="xtick_2">
     <g id="line2d_2">
      <path clip-path="url(#p1c63c9199b)" d="M 136.72059 224.64 
L 136.72059 7.2 
" style="fill:none;stroke:#ffffff;stroke-linecap:round;"/>
     </g>
     <g id="text_2">
      <!-- 4.0 -->
      <g style="fill:#262626;" transform="translate(129.07559 242.013594)scale(0.11 -0.11)">
       <defs>
        <path d="M 32.328125 0 
L 32.328125 17.140625 
L 1.265625 17.140625 
L 1.265625 25.203125 
L 33.9375 71.578125 
L 41.109375 71.578125 
L 41.109375 25.203125 
L 50.78125 25.203125 
L 50.78125 17.140625 
L 41.109375 17.140625 
L 41.109375 0 
z
M 32.328125 25.203125 
L 32.328125 57.46875 
L 9.90625 25.203125 
z
" id="ArialMT-52"/>
        <path d="M 4.15625 35.296875 
Q 4.15625 48 6.765625 55.734375 
Q 9.375 63.484375 14.515625 67.671875 
Q 19.671875 71.875 27.484375 71.875 
Q 33.25 71.875 37.59375 69.546875 
Q 41.9375 67.234375 44.765625 62.859375 
Q 47.609375 58.5 49.21875 52.21875 
Q 50.828125 45.953125 50.828125 35.296875 
Q 50.828125 22.703125 48.234375 14.96875 
Q 45.65625 7.234375 40.5 3 
Q 35.359375 -1.21875 27.484375 -1.21875 
Q 17.140625 -1.21875 11.234375 6.203125 
Q 4.15625 15.140625 4.15625 35.296875 
z
M 13.1875 35.296875 
Q 13.1875 17.671875 17.3125 11.828125 
Q 21.4375 6 27.484375 6 
Q 33.546875 6 37.671875 11.859375 
Q 41.796875 17.71875 41.796875 35.296875 
Q 41.796875 52.984375 37.671875 58.78125 
Q 33.546875 64.59375 27.390625 64.59375 
Q 21.34375 64.59375 17.71875 59.46875 
Q 13.1875 52.9375 13.1875 35.296875 
z
" id="ArialMT-48"/>
       </defs>
       <use xlink:href="#ArialMT-52"/>
       <use x="55.615234" xlink:href="#ArialMT-46"/>
       <use x="83.398438" xlink:href="#ArialMT-48"/>
      </g>
     </g>
    </g>
    <g id="xtick_3">
     <g id="line2d_3">
      <path clip-path="url(#p1c63c9199b)" d="M 198.835618 224.64 
L 198.835618 7.2 
" style="fill:none;stroke:#ffffff;stroke-linecap:round;"/>
     </g>
     <g id="text_3">
      <!-- 4.5 -->
      <g style="fill:#262626;" transform="translate(191.190618 242.013594)scale(0.11 -0.11)">
       <use xlink:href="#ArialMT-52"/>
       <use x="55.615234" xlink:href="#ArialMT-46"/>
       <use x="83.398438" xlink:href="#ArialMT-53"/>
      </g>
     </g>
    </g>
    <g id="xtick_4">
     <g id="line2d_4">
      <path clip-path="url(#p1c63c9199b)" d="M 260.950646 224.64 
L 260.950646 7.2 
" style="fill:none;stroke:#ffffff;stroke-linecap:round;"/>
     </g>
     <g id="text_4">
      <!-- 5.0 -->
      <g style="fill:#262626;" transform="translate(253.305646 242.013594)scale(0.11 -0.11)">
       <use xlink:href="#ArialMT-53"/>
       <use x="55.615234" xlink:href="#ArialMT-46"/>
       <use x="83.398438" xlink:href="#ArialMT-48"/>
      </g>
     </g>
    </g>
    <g id="xtick_5">
     <g id="line2d_5">
      <path clip-path="url(#p1c63c9199b)" d="M 323.065674 224.64 
L 323.065674 7.2 
" style="fill:none;stroke:#ffffff;stroke-linecap:round;"/>
     </g>
     <g id="text_5">
      <!-- 5.5 -->
      <g style="fill:#262626;" transform="translate(315.420674 242.013594)scale(0.11 -0.11)">
       <use xlink:href="#ArialMT-53"/>
       <use x="55.615234" xlink:href="#ArialMT-46"/>
       <use x="83.398438" xlink:href="#ArialMT-53"/>
      </g>
     </g>
    </g>
    <g id="text_6">
     <!-- V1 -->
     <g style="fill:#262626;" transform="translate(207.025625 256.789219)scale(0.12 -0.12)">
      <defs>
       <path d="M 28.171875 0 
L 0.4375 71.578125 
L 10.6875 71.578125 
L 29.296875 19.578125 
Q 31.546875 13.328125 33.0625 7.859375 
Q 34.71875 13.71875 36.921875 19.578125 
L 56.25 71.578125 
L 65.921875 71.578125 
L 37.890625 0 
z
" id="ArialMT-86"/>
       <path d="M 37.25 0 
L 28.46875 0 
L 28.46875 56 
Q 25.296875 52.984375 20.140625 49.953125 
Q 14.984375 46.921875 10.890625 45.40625 
L 10.890625 53.90625 
Q 18.265625 57.375 23.78125 62.296875 
Q 29.296875 67.234375 31.59375 71.875 
L 37.25 71.875 
z
" id="ArialMT-49"/>
      </defs>
      <use xlink:href="#ArialMT-86"/>
      <use x="66.699219" xlink:href="#ArialMT-49"/>
     </g>
    </g>
   </g>
   <g id="matplotlib.axis_2">
    <g id="ytick_1">
     <g id="line2d_6">
      <path clip-path="url(#p1c63c9199b)" d="M 46.964375 219.698182 
L 381.764375 219.698182 
" style="fill:none;stroke:#ffffff;stroke-linecap:round;"/>
     </g>
     <g id="text_7">
      <!-- 0.5 -->
      <g style="fill:#262626;" transform="translate(22.174375 223.634979)scale(0.11 -0.11)">
       <use xlink:href="#ArialMT-48"/>
       <use x="55.615234" xlink:href="#ArialMT-46"/>
       <use x="83.398438" xlink:href="#ArialMT-53"/>
      </g>
     </g>
    </g>
    <g id="ytick_2">
     <g id="line2d_7">
      <path clip-path="url(#p1c63c9199b)" d="M 46.964375 194.989091 
L 381.764375 194.989091 
" style="fill:none;stroke:#ffffff;stroke-linecap:round;"/>
     </g>
     <g id="text_8">
      <!-- 1.0 -->
      <g style="fill:#262626;" transform="translate(22.174375 198.925888)scale(0.11 -0.11)">
       <use xlink:href="#ArialMT-49"/>
       <use x="55.615234" xlink:href="#ArialMT-46"/>
       <use x="83.398438" xlink:href="#ArialMT-48"/>
      </g>
     </g>
    </g>
    <g id="ytick_3">
     <g id="line2d_8">
      <path clip-path="url(#p1c63c9199b)" d="M 46.964375 170.28 
L 381.764375 170.28 
" style="fill:none;stroke:#ffffff;stroke-linecap:round;"/>
     </g>
     <g id="text_9">
      <!-- 1.5 -->
      <g style="fill:#262626;" transform="translate(22.174375 174.216797)scale(0.11 -0.11)">
       <use xlink:href="#ArialMT-49"/>
       <use x="55.615234" xlink:href="#ArialMT-46"/>
       <use x="83.398438" xlink:href="#ArialMT-53"/>
      </g>
     </g>
    </g>
    <g id="ytick_4">
     <g id="line2d_9">
      <path clip-path="url(#p1c63c9199b)" d="M 46.964375 145.570909 
L 381.764375 145.570909 
" style="fill:none;stroke:#ffffff;stroke-linecap:round;"/>
     </g>
     <g id="text_10">
      <!-- 2.0 -->
      <g style="fill:#262626;" transform="translate(22.174375 149.507706)scale(0.11 -0.11)">
       <defs>
        <path d="M 50.34375 8.453125 
L 50.34375 0 
L 3.03125 0 
Q 2.9375 3.171875 4.046875 6.109375 
Q 5.859375 10.9375 9.828125 15.625 
Q 13.8125 20.3125 21.34375 26.46875 
Q 33.015625 36.03125 37.109375 41.625 
Q 41.21875 47.21875 41.21875 52.203125 
Q 41.21875 57.421875 37.46875 61 
Q 33.734375 64.59375 27.734375 64.59375 
Q 21.390625 64.59375 17.578125 60.78125 
Q 13.765625 56.984375 13.71875 50.25 
L 4.6875 51.171875 
Q 5.609375 61.28125 11.65625 66.578125 
Q 17.71875 71.875 27.9375 71.875 
Q 38.234375 71.875 44.234375 66.15625 
Q 50.25 60.453125 50.25 52 
Q 50.25 47.703125 48.484375 43.546875 
Q 46.734375 39.40625 42.65625 34.8125 
Q 38.578125 30.21875 29.109375 22.21875 
Q 21.1875 15.578125 18.9375 13.203125 
Q 16.703125 10.84375 15.234375 8.453125 
z
" id="ArialMT-50"/>
       </defs>
       <use xlink:href="#ArialMT-50"/>
       <use x="55.615234" xlink:href="#ArialMT-46"/>
       <use x="83.398438" xlink:href="#ArialMT-48"/>
      </g>
     </g>
    </g>
    <g id="ytick_5">
     <g id="line2d_10">
      <path clip-path="url(#p1c63c9199b)" d="M 46.964375 120.861818 
L 381.764375 120.861818 
" style="fill:none;stroke:#ffffff;stroke-linecap:round;"/>
     </g>
     <g id="text_11">
      <!-- 2.5 -->
      <g style="fill:#262626;" transform="translate(22.174375 124.798615)scale(0.11 -0.11)">
       <use xlink:href="#ArialMT-50"/>
       <use x="55.615234" xlink:href="#ArialMT-46"/>
       <use x="83.398438" xlink:href="#ArialMT-53"/>
      </g>
     </g>
    </g>
    <g id="ytick_6">
     <g id="line2d_11">
      <path clip-path="url(#p1c63c9199b)" d="M 46.964375 96.152727 
L 381.764375 96.152727 
" style="fill:none;stroke:#ffffff;stroke-linecap:round;"/>
     </g>
     <g id="text_12">
      <!-- 3.0 -->
      <g style="fill:#262626;" transform="translate(22.174375 100.089524)scale(0.11 -0.11)">
       <use xlink:href="#ArialMT-51"/>
       <use x="55.615234" xlink:href="#ArialMT-46"/>
       <use x="83.398438" xlink:href="#ArialMT-48"/>
      </g>
     </g>
    </g>
    <g id="ytick_7">
     <g id="line2d_12">
      <path clip-path="url(#p1c63c9199b)" d="M 46.964375 71.443636 
L 381.764375 71.443636 
" style="fill:none;stroke:#ffffff;stroke-linecap:round;"/>
     </g>
     <g id="text_13">
      <!-- 3.5 -->
      <g style="fill:#262626;" transform="translate(22.174375 75.380433)scale(0.11 -0.11)">
       <use xlink:href="#ArialMT-51"/>
       <use x="55.615234" xlink:href="#ArialMT-46"/>
       <use x="83.398438" xlink:href="#ArialMT-53"/>
      </g>
     </g>
    </g>
    <g id="ytick_8">
     <g id="line2d_13">
      <path clip-path="url(#p1c63c9199b)" d="M 46.964375 46.734545 
L 381.764375 46.734545 
" style="fill:none;stroke:#ffffff;stroke-linecap:round;"/>
     </g>
     <g id="text_14">
      <!-- 4.0 -->
      <g style="fill:#262626;" transform="translate(22.174375 50.671342)scale(0.11 -0.11)">
       <use xlink:href="#ArialMT-52"/>
       <use x="55.615234" xlink:href="#ArialMT-46"/>
       <use x="83.398438" xlink:href="#ArialMT-48"/>
      </g>
     </g>
    </g>
    <g id="ytick_9">
     <g id="line2d_14">
      <path clip-path="url(#p1c63c9199b)" d="M 46.964375 22.025455 
L 381.764375 22.025455 
" style="fill:none;stroke:#ffffff;stroke-linecap:round;"/>
     </g>
     <g id="text_15">
      <!-- 4.5 -->
      <g style="fill:#262626;" transform="translate(22.174375 25.962251)scale(0.11 -0.11)">
       <use xlink:href="#ArialMT-52"/>
       <use x="55.615234" xlink:href="#ArialMT-46"/>
       <use x="83.398438" xlink:href="#ArialMT-53"/>
      </g>
     </g>
    </g>
    <g id="text_16">
     <!-- V2 -->
     <g style="fill:#262626;" transform="translate(15.789375 123.25875)rotate(-90)scale(0.12 -0.12)">
      <use xlink:href="#ArialMT-86"/>
      <use x="66.699219" xlink:href="#ArialMT-50"/>
     </g>
    </g>
   </g>
   <g id="PathCollection_1">
    <defs>
     <path d="M 0 3 
C 0.795609 3 1.55874 2.683901 2.12132 2.12132 
C 2.683901 1.55874 3 0.795609 3 -0 
C 3 -0.795609 2.683901 -1.55874 2.12132 -2.12132 
C 1.55874 -2.683901 0.795609 -3 0 -3 
C -0.795609 -3 -1.55874 -2.683901 -2.12132 -2.12132 
C -2.683901 -1.55874 -3 -0.795609 -3 0 
C -3 0.795609 -2.683901 1.55874 -2.12132 2.12132 
C -1.55874 2.683901 -0.795609 3 0 3 
z
" id="C0_0_cb22b02763"/>
    </defs>
    <g clip-path="url(#p1c63c9199b)">
     <use style="fill:#d4dd80;stroke:#d4dd80;" x="173.989607" xlink:href="#C0_0_cb22b02763" y="204.872727"/>
    </g>
    <g clip-path="url(#p1c63c9199b)">
     <use style="fill:#8000ff;stroke:#8000ff;" x="130.509087" xlink:href="#C0_0_cb22b02763" y="204.872727"/>
    </g>
    <g clip-path="url(#p1c63c9199b)">
     <use style="fill:#8000ff;stroke:#8000ff;" x="130.509087" xlink:href="#C0_0_cb22b02763" y="207.343636"/>
    </g>
    <g clip-path="url(#p1c63c9199b)">
     <use style="fill:#8000ff;stroke:#8000ff;" x="118.086082" xlink:href="#C0_0_cb22b02763" y="202.401818"/>
    </g>
    <g clip-path="url(#p1c63c9199b)">
     <use style="fill:#d4dd80;stroke:#d4dd80;" x="173.989607" xlink:href="#C0_0_cb22b02763" y="204.872727"/>
    </g>
    <g clip-path="url(#p1c63c9199b)">
     <use style="fill:#9cfba4;stroke:#9cfba4;" x="217.470126" xlink:href="#C0_0_cb22b02763" y="192.518182"/>
    </g>
    <g clip-path="url(#p1c63c9199b)">
     <use style="fill:#8000ff;stroke:#8000ff;" x="136.72059" xlink:href="#C0_0_cb22b02763" y="202.401818"/>
    </g>
    <g clip-path="url(#p1c63c9199b)">
     <use style="fill:#d4dd80;stroke:#d4dd80;" x="161.566601" xlink:href="#C0_0_cb22b02763" y="202.401818"/>
    </g>
    <g clip-path="url(#p1c63c9199b)">
     <use style="fill:#8000ff;stroke:#8000ff;" x="93.240071" xlink:href="#C0_0_cb22b02763" y="204.872727"/>
    </g>
    <g clip-path="url(#p1c63c9199b)">
     <use style="fill:#8000ff;stroke:#8000ff;" x="136.72059" xlink:href="#C0_0_cb22b02763" y="204.872727"/>
    </g>
    <g clip-path="url(#p1c63c9199b)">
     <use style="fill:#9cfba4;stroke:#9cfba4;" x="205.047121" xlink:href="#C0_0_cb22b02763" y="202.401818"/>
    </g>
    <g clip-path="url(#p1c63c9199b)">
     <use style="fill:#d4dd80;stroke:#d4dd80;" x="149.143596" xlink:href="#C0_0_cb22b02763" y="199.930909"/>
    </g>
    <g clip-path="url(#p1c63c9199b)">
     <use style="fill:#8000ff;stroke:#8000ff;" x="124.297585" xlink:href="#C0_0_cb22b02763" y="207.343636"/>
    </g>
    <g clip-path="url(#p1c63c9199b)">
     <use style="fill:#8000ff;stroke:#8000ff;" x="93.240071" xlink:href="#C0_0_cb22b02763" y="214.756364"/>
    </g>
    <g clip-path="url(#p1c63c9199b)">
     <use style="fill:#9cfba4;stroke:#9cfba4;" x="248.52764" xlink:href="#C0_0_cb22b02763" y="209.814545"/>
    </g>
    <g clip-path="url(#p1c63c9199b)">
     <use style="fill:#9cfba4;stroke:#9cfba4;" x="267.162149" xlink:href="#C0_0_cb22b02763" y="197.46"/>
    </g>
    <g clip-path="url(#p1c63c9199b)">
     <use style="fill:#9cfba4;stroke:#9cfba4;" x="217.470126" xlink:href="#C0_0_cb22b02763" y="202.401818"/>
    </g>
    <g clip-path="url(#p1c63c9199b)">
     <use style="fill:#d4dd80;stroke:#d4dd80;" x="173.989607" xlink:href="#C0_0_cb22b02763" y="202.401818"/>
    </g>
    <g clip-path="url(#p1c63c9199b)">
     <use style="fill:#9cfba4;stroke:#9cfba4;" x="229.893132" xlink:href="#C0_0_cb22b02763" y="194.989091"/>
    </g>
    <g clip-path="url(#p1c63c9199b)">
     <use style="fill:#d4dd80;stroke:#d4dd80;" x="192.624115" xlink:href="#C0_0_cb22b02763" y="199.930909"/>
    </g>
    <g clip-path="url(#p1c63c9199b)">
     <use style="fill:#d4dd80;stroke:#d4dd80;" x="186.412612" xlink:href="#C0_0_cb22b02763" y="197.46"/>
    </g>
    <g clip-path="url(#p1c63c9199b)">
     <use style="fill:#d4dd80;stroke:#d4dd80;" x="186.412612" xlink:href="#C0_0_cb22b02763" y="197.46"/>
    </g>
    <g clip-path="url(#p1c63c9199b)">
     <use style="fill:#d4dd80;stroke:#d4dd80;" x="149.143596" xlink:href="#C0_0_cb22b02763" y="214.756364"/>
    </g>
    <g clip-path="url(#p1c63c9199b)">
     <use style="fill:#d4dd80;stroke:#d4dd80;" x="161.566601" xlink:href="#C0_0_cb22b02763" y="190.047273"/>
    </g>
    <g clip-path="url(#p1c63c9199b)">
     <use style="fill:#d4dd80;stroke:#d4dd80;" x="149.143596" xlink:href="#C0_0_cb22b02763" y="192.518182"/>
    </g>
    <g clip-path="url(#p1c63c9199b)">
     <use style="fill:#8000ff;stroke:#8000ff;" x="136.72059" xlink:href="#C0_0_cb22b02763" y="199.930909"/>
    </g>
    <g clip-path="url(#p1c63c9199b)">
     <use style="fill:#d4dd80;stroke:#d4dd80;" x="161.566601" xlink:href="#C0_0_cb22b02763" y="194.989091"/>
    </g>
    <g clip-path="url(#p1c63c9199b)">
     <use style="fill:#d4dd80;stroke:#d4dd80;" x="180.20111" xlink:href="#C0_0_cb22b02763" y="202.401818"/>
    </g>
    <g clip-path="url(#p1c63c9199b)">
     <use style="fill:#d4dd80;stroke:#d4dd80;" x="173.989607" xlink:href="#C0_0_cb22b02763" y="204.872727"/>
    </g>
    <g clip-path="url(#p1c63c9199b)">
     <use style="fill:#8000ff;stroke:#8000ff;" x="130.509087" xlink:href="#C0_0_cb22b02763" y="199.930909"/>
    </g>
    <g clip-path="url(#p1c63c9199b)">
     <use style="fill:#8000ff;stroke:#8000ff;" x="130.509087" xlink:href="#C0_0_cb22b02763" y="199.930909"/>
    </g>
    <g clip-path="url(#p1c63c9199b)">
     <use style="fill:#d4dd80;stroke:#d4dd80;" x="186.412612" xlink:href="#C0_0_cb22b02763" y="197.46"/>
    </g>
    <g clip-path="url(#p1c63c9199b)">
     <use style="fill:#9cfba4;stroke:#9cfba4;" x="217.470126" xlink:href="#C0_0_cb22b02763" y="204.872727"/>
    </g>
    <g clip-path="url(#p1c63c9199b)">
     <use style="fill:#9cfba4;stroke:#9cfba4;" x="242.316138" xlink:href="#C0_0_cb22b02763" y="204.872727"/>
    </g>
    <g clip-path="url(#p1c63c9199b)">
     <use style="fill:#8000ff;stroke:#8000ff;" x="136.72059" xlink:href="#C0_0_cb22b02763" y="204.872727"/>
    </g>
    <g clip-path="url(#p1c63c9199b)">
     <use style="fill:#d4dd80;stroke:#d4dd80;" x="149.143596" xlink:href="#C0_0_cb22b02763" y="209.814545"/>
    </g>
    <g clip-path="url(#p1c63c9199b)">
     <use style="fill:#d4dd80;stroke:#d4dd80;" x="198.835618" xlink:href="#C0_0_cb22b02763" y="207.343636"/>
    </g>
    <g clip-path="url(#p1c63c9199b)">
     <use style="fill:#8000ff;stroke:#8000ff;" x="136.72059" xlink:href="#C0_0_cb22b02763" y="204.872727"/>
    </g>
    <g clip-path="url(#p1c63c9199b)">
     <use style="fill:#8000ff;stroke:#8000ff;" x="99.451574" xlink:href="#C0_0_cb22b02763" y="207.343636"/>
    </g>
    <g clip-path="url(#p1c63c9199b)">
     <use style="fill:#d4dd80;stroke:#d4dd80;" x="167.778104" xlink:href="#C0_0_cb22b02763" y="202.401818"/>
    </g>
    <g clip-path="url(#p1c63c9199b)">
     <use style="fill:#d4dd80;stroke:#d4dd80;" x="167.778104" xlink:href="#C0_0_cb22b02763" y="204.872727"/>
    </g>
    <g clip-path="url(#p1c63c9199b)">
     <use style="fill:#8000ff;stroke:#8000ff;" x="62.182557" xlink:href="#C0_0_cb22b02763" y="204.872727"/>
    </g>
    <g clip-path="url(#p1c63c9199b)">
     <use style="fill:#8000ff;stroke:#8000ff;" x="111.874579" xlink:href="#C0_0_cb22b02763" y="207.343636"/>
    </g>
    <g clip-path="url(#p1c63c9199b)">
     <use style="fill:#d4dd80;stroke:#d4dd80;" x="167.778104" xlink:href="#C0_0_cb22b02763" y="190.047273"/>
    </g>
    <g clip-path="url(#p1c63c9199b)">
     <use style="fill:#d4dd80;stroke:#d4dd80;" x="192.624115" xlink:href="#C0_0_cb22b02763" y="187.576364"/>
    </g>
    <g clip-path="url(#p1c63c9199b)">
     <use style="fill:#8000ff;stroke:#8000ff;" x="124.297585" xlink:href="#C0_0_cb22b02763" y="202.401818"/>
    </g>
    <g clip-path="url(#p1c63c9199b)">
     <use style="fill:#d4dd80;stroke:#d4dd80;" x="192.624115" xlink:href="#C0_0_cb22b02763" y="199.930909"/>
    </g>
    <g clip-path="url(#p1c63c9199b)">
     <use style="fill:#8000ff;stroke:#8000ff;" x="124.297585" xlink:href="#C0_0_cb22b02763" y="204.872727"/>
    </g>
    <g clip-path="url(#p1c63c9199b)">
     <use style="fill:#d4dd80;stroke:#d4dd80;" x="198.835618" xlink:href="#C0_0_cb22b02763" y="202.401818"/>
    </g>
    <g clip-path="url(#p1c63c9199b)">
     <use style="fill:#d4dd80;stroke:#d4dd80;" x="155.355099" xlink:href="#C0_0_cb22b02763" y="204.872727"/>
    </g>
    <g clip-path="url(#p1c63c9199b)">
     <use style="fill:#2adddd;stroke:#2adddd;" x="273.373651" xlink:href="#C0_0_cb22b02763" y="93.681818"/>
    </g>
    <g clip-path="url(#p1c63c9199b)">
     <use style="fill:#2adddd;stroke:#2adddd;" x="236.104635" xlink:href="#C0_0_cb22b02763" y="96.152727"/>
    </g>
    <g clip-path="url(#p1c63c9199b)">
     <use style="fill:#2adddd;stroke:#2adddd;" x="260.950646" xlink:href="#C0_0_cb22b02763" y="86.269091"/>
    </g>
    <g clip-path="url(#p1c63c9199b)">
     <use style="fill:#10a2f0;stroke:#10a2f0;" x="124.297585" xlink:href="#C0_0_cb22b02763" y="113.449091"/>
    </g>
    <g clip-path="url(#p1c63c9199b)">
     <use style="fill:#2adddd;stroke:#2adddd;" x="217.470126" xlink:href="#C0_0_cb22b02763" y="93.681818"/>
    </g>
    <g clip-path="url(#p1c63c9199b)">
     <use style="fill:#62fbc4;stroke:#62fbc4;" x="167.778104" xlink:href="#C0_0_cb22b02763" y="101.094545"/>
    </g>
    <g clip-path="url(#p1c63c9199b)">
     <use style="fill:#2adddd;stroke:#2adddd;" x="236.104635" xlink:href="#C0_0_cb22b02763" y="88.74"/>
    </g>
    <g clip-path="url(#p1c63c9199b)">
     <use style="fill:#10a2f0;stroke:#10a2f0;" x="93.240071" xlink:href="#C0_0_cb22b02763" y="138.158182"/>
    </g>
    <g clip-path="url(#p1c63c9199b)">
     <use style="fill:#2adddd;stroke:#2adddd;" x="229.893132" xlink:href="#C0_0_cb22b02763" y="98.623636"/>
    </g>
    <g clip-path="url(#p1c63c9199b)">
     <use style="fill:#10a2f0;stroke:#10a2f0;" x="130.509087" xlink:href="#C0_0_cb22b02763" y="113.449091"/>
    </g>
    <g clip-path="url(#p1c63c9199b)">
     <use style="fill:#10a2f0;stroke:#10a2f0;" x="74.605562" xlink:href="#C0_0_cb22b02763" y="133.216364"/>
    </g>
    <g clip-path="url(#p1c63c9199b)">
     <use style="fill:#62fbc4;stroke:#62fbc4;" x="192.624115" xlink:href="#C0_0_cb22b02763" y="103.565455"/>
    </g>
    <g clip-path="url(#p1c63c9199b)">
     <use style="fill:#10a2f0;stroke:#10a2f0;" x="149.143596" xlink:href="#C0_0_cb22b02763" y="120.861818"/>
    </g>
    <g clip-path="url(#p1c63c9199b)">
     <use style="fill:#62fbc4;stroke:#62fbc4;" x="198.835618" xlink:href="#C0_0_cb22b02763" y="93.681818"/>
    </g>
    <g clip-path="url(#p1c63c9199b)">
     <use style="fill:#62fbc4;stroke:#62fbc4;" x="167.778104" xlink:href="#C0_0_cb22b02763" y="123.332727"/>
    </g>
    <g clip-path="url(#p1c63c9199b)">
     <use style="fill:#2adddd;stroke:#2adddd;" x="248.52764" xlink:href="#C0_0_cb22b02763" y="101.094545"/>
    </g>
    <g clip-path="url(#p1c63c9199b)">
     <use style="fill:#62fbc4;stroke:#62fbc4;" x="173.989607" xlink:href="#C0_0_cb22b02763" y="96.152727"/>
    </g>
    <g clip-path="url(#p1c63c9199b)">
     <use style="fill:#62fbc4;stroke:#62fbc4;" x="167.778104" xlink:href="#C0_0_cb22b02763" y="118.390909"/>
    </g>
    <g clip-path="url(#p1c63c9199b)">
     <use style="fill:#62fbc4;stroke:#62fbc4;" x="161.566601" xlink:href="#C0_0_cb22b02763" y="96.152727"/>
    </g>
    <g clip-path="url(#p1c63c9199b)">
     <use style="fill:#10a2f0;stroke:#10a2f0;" x="142.932093" xlink:href="#C0_0_cb22b02763" y="120.861818"/>
    </g>
    <g clip-path="url(#p1c63c9199b)">
     <use style="fill:#2adddd;stroke:#2adddd;" x="205.047121" xlink:href="#C0_0_cb22b02763" y="81.327273"/>
    </g>
    <g clip-path="url(#p1c63c9199b)">
     <use style="fill:#62fbc4;stroke:#62fbc4;" x="192.624115" xlink:href="#C0_0_cb22b02763" y="113.449091"/>
    </g>
    <g clip-path="url(#p1c63c9199b)">
     <use style="fill:#62fbc4;stroke:#62fbc4;" x="186.412612" xlink:href="#C0_0_cb22b02763" y="86.269091"/>
    </g>
    <g clip-path="url(#p1c63c9199b)">
     <use style="fill:#62fbc4;stroke:#62fbc4;" x="192.624115" xlink:href="#C0_0_cb22b02763" y="98.623636"/>
    </g>
    <g clip-path="url(#p1c63c9199b)">
     <use style="fill:#2adddd;stroke:#2adddd;" x="217.470126" xlink:href="#C0_0_cb22b02763" y="106.036364"/>
    </g>
    <g clip-path="url(#p1c63c9199b)">
     <use style="fill:#2adddd;stroke:#2adddd;" x="236.104635" xlink:href="#C0_0_cb22b02763" y="101.094545"/>
    </g>
    <g clip-path="url(#p1c63c9199b)">
     <use style="fill:#2adddd;stroke:#2adddd;" x="236.104635" xlink:href="#C0_0_cb22b02763" y="91.210909"/>
    </g>
    <g clip-path="url(#p1c63c9199b)">
     <use style="fill:#2adddd;stroke:#2adddd;" x="242.316138" xlink:href="#C0_0_cb22b02763" y="78.856364"/>
    </g>
    <g clip-path="url(#p1c63c9199b)">
     <use style="fill:#62fbc4;stroke:#62fbc4;" x="192.624115" xlink:href="#C0_0_cb22b02763" y="96.152727"/>
    </g>
    <g clip-path="url(#p1c63c9199b)">
     <use style="fill:#10a2f0;stroke:#10a2f0;" x="155.355099" xlink:href="#C0_0_cb22b02763" y="133.216364"/>
    </g>
    <g clip-path="url(#p1c63c9199b)">
     <use style="fill:#10a2f0;stroke:#10a2f0;" x="130.509087" xlink:href="#C0_0_cb22b02763" y="123.332727"/>
    </g>
    <g clip-path="url(#p1c63c9199b)">
     <use style="fill:#10a2f0;stroke:#10a2f0;" x="130.509087" xlink:href="#C0_0_cb22b02763" y="128.274545"/>
    </g>
    <g clip-path="url(#p1c63c9199b)">
     <use style="fill:#62fbc4;stroke:#62fbc4;" x="167.778104" xlink:href="#C0_0_cb22b02763" y="118.390909"/>
    </g>
    <g clip-path="url(#p1c63c9199b)">
     <use style="fill:#62fbc4;stroke:#62fbc4;" x="180.20111" xlink:href="#C0_0_cb22b02763" y="78.856364"/>
    </g>
    <g clip-path="url(#p1c63c9199b)">
     <use style="fill:#62fbc4;stroke:#62fbc4;" x="161.566601" xlink:href="#C0_0_cb22b02763" y="96.152727"/>
    </g>
    <g clip-path="url(#p1c63c9199b)">
     <use style="fill:#2adddd;stroke:#2adddd;" x="223.681629" xlink:href="#C0_0_cb22b02763" y="93.681818"/>
    </g>
    <g clip-path="url(#p1c63c9199b)">
     <use style="fill:#2adddd;stroke:#2adddd;" x="248.52764" xlink:href="#C0_0_cb22b02763" y="91.210909"/>
    </g>
    <g clip-path="url(#p1c63c9199b)">
     <use style="fill:#62fbc4;stroke:#62fbc4;" x="173.989607" xlink:href="#C0_0_cb22b02763" y="103.565455"/>
    </g>
    <g clip-path="url(#p1c63c9199b)">
     <use style="fill:#62fbc4;stroke:#62fbc4;" x="173.989607" xlink:href="#C0_0_cb22b02763" y="110.978182"/>
    </g>
    <g clip-path="url(#p1c63c9199b)">
     <use style="fill:#10a2f0;stroke:#10a2f0;" x="136.72059" xlink:href="#C0_0_cb22b02763" y="113.449091"/>
    </g>
    <g clip-path="url(#p1c63c9199b)">
     <use style="fill:#10a2f0;stroke:#10a2f0;" x="142.932093" xlink:href="#C0_0_cb22b02763" y="106.036364"/>
    </g>
    <g clip-path="url(#p1c63c9199b)">
     <use style="fill:#62fbc4;stroke:#62fbc4;" x="205.047121" xlink:href="#C0_0_cb22b02763" y="96.152727"/>
    </g>
    <g clip-path="url(#p1c63c9199b)">
     <use style="fill:#62fbc4;stroke:#62fbc4;" x="161.566601" xlink:href="#C0_0_cb22b02763" y="115.92"/>
    </g>
    <g clip-path="url(#p1c63c9199b)">
     <use style="fill:#10a2f0;stroke:#10a2f0;" x="93.240071" xlink:href="#C0_0_cb22b02763" y="138.158182"/>
    </g>
    <g clip-path="url(#p1c63c9199b)">
     <use style="fill:#62fbc4;stroke:#62fbc4;" x="155.355099" xlink:href="#C0_0_cb22b02763" y="108.507273"/>
    </g>
    <g clip-path="url(#p1c63c9199b)">
     <use style="fill:#62fbc4;stroke:#62fbc4;" x="180.20111" xlink:href="#C0_0_cb22b02763" y="110.978182"/>
    </g>
    <g clip-path="url(#p1c63c9199b)">
     <use style="fill:#62fbc4;stroke:#62fbc4;" x="173.989607" xlink:href="#C0_0_cb22b02763" y="108.507273"/>
    </g>
    <g clip-path="url(#p1c63c9199b)">
     <use style="fill:#62fbc4;stroke:#62fbc4;" x="205.047121" xlink:href="#C0_0_cb22b02763" y="106.036364"/>
    </g>
    <g clip-path="url(#p1c63c9199b)">
     <use style="fill:#10a2f0;stroke:#10a2f0;" x="111.874579" xlink:href="#C0_0_cb22b02763" y="143.1"/>
    </g>
    <g clip-path="url(#p1c63c9199b)">
     <use style="fill:#62fbc4;stroke:#62fbc4;" x="167.778104" xlink:href="#C0_0_cb22b02763" y="110.978182"/>
    </g>
    <g clip-path="url(#p1c63c9199b)">
     <use style="fill:#4856fb;stroke:#4856fb;" x="236.104635" xlink:href="#C0_0_cb22b02763" y="34.38"/>
    </g>
    <g clip-path="url(#p1c63c9199b)">
     <use style="fill:#ffa256;stroke:#ffa256;" x="167.778104" xlink:href="#C0_0_cb22b02763" y="71.443636"/>
    </g>
    <g clip-path="url(#p1c63c9199b)">
     <use style="fill:#ff0000;stroke:#ff0000;" x="267.162149" xlink:href="#C0_0_cb22b02763" y="46.734545"/>
    </g>
    <g clip-path="url(#p1c63c9199b)">
     <use style="fill:#ffa256;stroke:#ffa256;" x="211.258624" xlink:href="#C0_0_cb22b02763" y="61.56"/>
    </g>
    <g clip-path="url(#p1c63c9199b)">
     <use style="fill:#4856fb;stroke:#4856fb;" x="229.893132" xlink:href="#C0_0_cb22b02763" y="46.734545"/>
    </g>
    <g clip-path="url(#p1c63c9199b)">
     <use style="fill:#ff0000;stroke:#ff0000;" x="298.219663" xlink:href="#C0_0_cb22b02763" y="29.438182"/>
    </g>
    <g clip-path="url(#p1c63c9199b)">
     <use style="fill:#10a2f0;stroke:#10a2f0;" x="99.451574" xlink:href="#C0_0_cb22b02763" y="91.210909"/>
    </g>
    <g clip-path="url(#p1c63c9199b)">
     <use style="fill:#ff0000;stroke:#ff0000;" x="273.373651" xlink:href="#C0_0_cb22b02763" y="44.263636"/>
    </g>
    <g clip-path="url(#p1c63c9199b)">
     <use style="fill:#ffa256;stroke:#ffa256;" x="211.258624" xlink:href="#C0_0_cb22b02763" y="56.618182"/>
    </g>
    <g clip-path="url(#p1c63c9199b)">
     <use style="fill:#ff0000;stroke:#ff0000;" x="310.642668" xlink:href="#C0_0_cb22b02763" y="31.909091"/>
    </g>
    <g clip-path="url(#p1c63c9199b)">
     <use style="fill:#4856fb;stroke:#4856fb;" x="242.316138" xlink:href="#C0_0_cb22b02763" y="68.972727"/>
    </g>
    <g clip-path="url(#p1c63c9199b)">
     <use style="fill:#ffa256;stroke:#ffa256;" x="205.047121" xlink:href="#C0_0_cb22b02763" y="66.501818"/>
    </g>
    <g clip-path="url(#p1c63c9199b)">
     <use style="fill:#4856fb;stroke:#4856fb;" x="248.52764" xlink:href="#C0_0_cb22b02763" y="56.618182"/>
    </g>
    <g clip-path="url(#p1c63c9199b)">
     <use style="fill:#ffa256;stroke:#ffa256;" x="149.143596" xlink:href="#C0_0_cb22b02763" y="71.443636"/>
    </g>
    <g clip-path="url(#p1c63c9199b)">
     <use style="fill:#ffa256;stroke:#ffa256;" x="173.989607" xlink:href="#C0_0_cb22b02763" y="59.089091"/>
    </g>
    <g clip-path="url(#p1c63c9199b)">
     <use style="fill:#4856fb;stroke:#4856fb;" x="236.104635" xlink:href="#C0_0_cb22b02763" y="56.618182"/>
    </g>
    <g clip-path="url(#p1c63c9199b)">
     <use style="fill:#4856fb;stroke:#4856fb;" x="229.893132" xlink:href="#C0_0_cb22b02763" y="64.030909"/>
    </g>
    <g clip-path="url(#p1c63c9199b)">
     <use style="fill:#ff562c;stroke:#ff562c;" x="354.123188" xlink:href="#C0_0_cb22b02763" y="24.496364"/>
    </g>
    <g clip-path="url(#p1c63c9199b)">
     <use style="fill:#ff0000;stroke:#ff0000;" x="279.585154" xlink:href="#C0_0_cb22b02763" y="17.083636"/>
    </g>
    <g clip-path="url(#p1c63c9199b)">
     <use style="fill:#ffa256;stroke:#ffa256;" x="149.143596" xlink:href="#C0_0_cb22b02763" y="83.798182"/>
    </g>
    <g clip-path="url(#p1c63c9199b)">
     <use style="fill:#ff0000;stroke:#ff0000;" x="267.162149" xlink:href="#C0_0_cb22b02763" y="46.734545"/>
    </g>
    <g clip-path="url(#p1c63c9199b)">
     <use style="fill:#ffa256;stroke:#ffa256;" x="161.566601" xlink:href="#C0_0_cb22b02763" y="73.914545"/>
    </g>
    <g clip-path="url(#p1c63c9199b)">
     <use style="fill:#ff0000;stroke:#ff0000;" x="292.00816" xlink:href="#C0_0_cb22b02763" y="29.438182"/>
    </g>
    <g clip-path="url(#p1c63c9199b)">
     <use style="fill:#ffa256;stroke:#ffa256;" x="198.835618" xlink:href="#C0_0_cb22b02763" y="78.856364"/>
    </g>
    <g clip-path="url(#p1c63c9199b)">
     <use style="fill:#4856fb;stroke:#4856fb;" x="260.950646" xlink:href="#C0_0_cb22b02763" y="51.676364"/>
    </g>
    <g clip-path="url(#p1c63c9199b)">
     <use style="fill:#ff0000;stroke:#ff0000;" x="285.796657" xlink:href="#C0_0_cb22b02763" y="51.676364"/>
    </g>
    <g clip-path="url(#p1c63c9199b)">
     <use style="fill:#ffa256;stroke:#ffa256;" x="198.835618" xlink:href="#C0_0_cb22b02763" y="81.327273"/>
    </g>
    <g clip-path="url(#p1c63c9199b)">
     <use style="fill:#ffa256;stroke:#ffa256;" x="205.047121" xlink:href="#C0_0_cb22b02763" y="78.856364"/>
    </g>
    <g clip-path="url(#p1c63c9199b)">
     <use style="fill:#ffa256;stroke:#ffa256;" x="211.258624" xlink:href="#C0_0_cb22b02763" y="54.147273"/>
    </g>
    <g clip-path="url(#p1c63c9199b)">
     <use style="fill:#4856fb;stroke:#4856fb;" x="273.373651" xlink:href="#C0_0_cb22b02763" y="61.56"/>
    </g>
    <g clip-path="url(#p1c63c9199b)">
     <use style="fill:#ff0000;stroke:#ff0000;" x="273.373651" xlink:href="#C0_0_cb22b02763" y="46.734545"/>
    </g>
    <g clip-path="url(#p1c63c9199b)">
     <use style="fill:#ff562c;stroke:#ff562c;" x="366.546193" xlink:href="#C0_0_cb22b02763" y="36.850909"/>
    </g>
    <g clip-path="url(#p1c63c9199b)">
     <use style="fill:#ffa256;stroke:#ffa256;" x="211.258624" xlink:href="#C0_0_cb22b02763" y="51.676364"/>
    </g>
    <g clip-path="url(#p1c63c9199b)">
     <use style="fill:#ffa256;stroke:#ffa256;" x="205.047121" xlink:href="#C0_0_cb22b02763" y="81.327273"/>
    </g>
    <g clip-path="url(#p1c63c9199b)">
     <use style="fill:#ffa256;stroke:#ffa256;" x="180.20111" xlink:href="#C0_0_cb22b02763" y="71.443636"/>
    </g>
    <g clip-path="url(#p1c63c9199b)">
     <use style="fill:#ff0000;stroke:#ff0000;" x="304.431165" xlink:href="#C0_0_cb22b02763" y="36.850909"/>
    </g>
    <g clip-path="url(#p1c63c9199b)">
     <use style="fill:#4856fb;stroke:#4856fb;" x="242.316138" xlink:href="#C0_0_cb22b02763" y="46.734545"/>
    </g>
    <g clip-path="url(#p1c63c9199b)">
     <use style="fill:#4856fb;stroke:#4856fb;" x="229.893132" xlink:href="#C0_0_cb22b02763" y="64.030909"/>
    </g>
    <g clip-path="url(#p1c63c9199b)">
     <use style="fill:#ffa256;stroke:#ffa256;" x="198.835618" xlink:href="#C0_0_cb22b02763" y="81.327273"/>
    </g>
    <g clip-path="url(#p1c63c9199b)">
     <use style="fill:#4856fb;stroke:#4856fb;" x="260.950646" xlink:href="#C0_0_cb22b02763" y="59.089091"/>
    </g>
    <g clip-path="url(#p1c63c9199b)">
     <use style="fill:#4856fb;stroke:#4856fb;" x="248.52764" xlink:href="#C0_0_cb22b02763" y="46.734545"/>
    </g>
    <g clip-path="url(#p1c63c9199b)">
     <use style="fill:#4856fb;stroke:#4856fb;" x="260.950646" xlink:href="#C0_0_cb22b02763" y="61.56"/>
    </g>
    <g clip-path="url(#p1c63c9199b)">
     <use style="fill:#ffa256;stroke:#ffa256;" x="167.778104" xlink:href="#C0_0_cb22b02763" y="71.443636"/>
    </g>
    <g clip-path="url(#p1c63c9199b)">
     <use style="fill:#4856fb;stroke:#4856fb;" x="260.950646" xlink:href="#C0_0_cb22b02763" y="41.792727"/>
    </g>
    <g clip-path="url(#p1c63c9199b)">
     <use style="fill:#4856fb;stroke:#4856fb;" x="260.950646" xlink:href="#C0_0_cb22b02763" y="41.792727"/>
    </g>
    <g clip-path="url(#p1c63c9199b)">
     <use style="fill:#4856fb;stroke:#4856fb;" x="242.316138" xlink:href="#C0_0_cb22b02763" y="59.089091"/>
    </g>
    <g clip-path="url(#p1c63c9199b)">
     <use style="fill:#ffa256;stroke:#ffa256;" x="186.412612" xlink:href="#C0_0_cb22b02763" y="73.914545"/>
    </g>
    <g clip-path="url(#p1c63c9199b)">
     <use style="fill:#4856fb;stroke:#4856fb;" x="229.893132" xlink:href="#C0_0_cb22b02763" y="66.501818"/>
    </g>
    <g clip-path="url(#p1c63c9199b)">
     <use style="fill:#4856fb;stroke:#4856fb;" x="236.104635" xlink:href="#C0_0_cb22b02763" y="54.147273"/>
    </g>
    <g clip-path="url(#p1c63c9199b)">
     <use style="fill:#ffa256;stroke:#ffa256;" x="192.624115" xlink:href="#C0_0_cb22b02763" y="73.914545"/>
    </g>
   </g>
   <g id="patch_3">
    <path d="M 46.964375 224.64 
L 46.964375 7.2 
" style="fill:none;stroke:#ffffff;stroke-linecap:square;stroke-linejoin:miter;stroke-width:1.25;"/>
   </g>
   <g id="patch_4">
    <path d="M 381.764375 224.64 
L 381.764375 7.2 
" style="fill:none;stroke:#ffffff;stroke-linecap:square;stroke-linejoin:miter;stroke-width:1.25;"/>
   </g>
   <g id="patch_5">
    <path d="M 46.964375 224.64 
L 381.764375 224.64 
" style="fill:none;stroke:#ffffff;stroke-linecap:square;stroke-linejoin:miter;stroke-width:1.25;"/>
   </g>
   <g id="patch_6">
    <path d="M 46.964375 7.2 
L 381.764375 7.2 
" style="fill:none;stroke:#ffffff;stroke-linecap:square;stroke-linejoin:miter;stroke-width:1.25;"/>
   </g>
  </g>
 </g>
 <defs>
  <clipPath id="p1c63c9199b">
   <rect height="217.44" width="334.8" x="46.964375" y="7.2"/>
  </clipPath>
 </defs>
</svg>